<!-- public/images/logo-full.svg -->
<svg width="1200" height="320" viewBox="0 0 1200 320" fill="none" xmlns="http://www.w3.org/2000/svg">
  <defs>
    <linearGradient id="ps-bg" x1="40" y1="20" x2="220" y2="220" gradientUnits="userSpaceOnUse">
      <stop offset="0" stop-color="#66C2FF"/>
      <stop offset="0.52" stop-color="#3B82F6"/>
      <stop offset="1" stop-color="#1D4ED8"/>
    </linearGradient>

    <linearGradient id="ps-stack-1" x1="70" y1="96" x2="155" y2="96" gradientUnits="userSpaceOnUse">
      <stop offset="0" stop-color="#BFD9FF" stop-opacity="0.75"/>
      <stop offset="1" stop-color="#8DB8FF" stop-opacity="0.2"/>
    </linearGradient>

    <linearGradient id="ps-stack-2" x1="70" y1="124" x2="170" y2="124" gradientUnits="userSpaceOnUse">
      <stop offset="0" stop-color="#9FC5FF" stop-opacity="0.55"/>
      <stop offset="1" stop-color="#78A8FF" stop-opacity="0.16"/>
    </linearGradient>

    <linearGradient id="ps-stack-3" x1="70" y1="154" x2="185" y2="154" gradientUnits="userSpaceOnUse">
      <stop offset="0" stop-color="#7DAFFF" stop-opacity="0.4"/>
      <stop offset="1" stop-color="#5E90FF" stop-opacity="0.14"/>
    </linearGradient>

    <filter id="ps-shadow" x="0" y="0" width="280" height="280" filterUnits="userSpaceOnUse" color-interpolation-filters="sRGB">
      <feDropShadow dx="0" dy="12" stdDeviation="14" flood-color="#1D4ED8" flood-opacity="0.2"/>
    </filter>
  </defs>

  <g filter="url(#ps-shadow)">
    <rect x="24" y="24" width="200" height="200" rx="48" fill="url(#ps-bg)"/>
  </g>

  <path d="M56 96L112 62C116 60 121 60 125 62L138 70L82 106C78 108 73 108 69 106L56 96Z" fill="url(#ps-stack-1)"/>
  <path d="M56 124L126 82C130 80 135 80 139 82L152 90L82 134C78 136 73 136 69 134L56 124Z" fill="url(#ps-stack-2)"/>
  <path d="M56 154L140 104C144 102 149 102 153 104L166 112L82 162C78 164 73 164 69 162L56 154Z" fill="url(#ps-stack-3)"/>

  <path d="M105 58H142C174 58 197 77 197 106C197 135 174 154 142 154H131V191C131 198 125 204 118 204H99C92 204 86 198 86 191V74C86 65 94 58 105 58ZM131 120H139C151 120 160 114 160 106C160 98 151 92 139 92H131V120Z" fill="white"/>

  <path d="M149 126C152.7 122.8 158.3 123.1 161.5 126.8C164.7 130.5 164.4 136.1 160.7 139.3L126.4 169.7C123.2 172.5 118.3 172.5 115.1 169.7L93.7 150.7C90 147.5 89.7 141.9 92.9 138.2C96.1 134.5 101.7 134.2 105.4 137.4L121.3 151.5L149 126Z" fill="white"/>

  <path d="M286.64 192V66.08H341.68C368.08 66.08 386.8 80 386.8 103.4C386.8 118.88 378.34 130.04 364.12 135.26V136.16C383.2 140.12 394 154.7 394 174.14C394 201.08 372.04 218 342.94 218H286.64V192ZM319.58 126.98H336.28C347.26 126.98 353.86 121.58 353.86 112.04C353.86 102.68 347.26 97.46 336.28 97.46H319.58V126.98ZM319.58 186.44H339.7C352.84 186.44 360.52 180.86 360.52 170.78C360.52 160.7 352.84 154.94 339.7 154.94H319.58V186.44Z" fill="#0F172A"/>
  <path d="M410.723 218V95.48H440.603V113.3H441.683C446.363 101.24 456.983 93.68 470.483 93.68C473.903 93.68 477.323 94.22 479.123 94.94V122.3C476.423 121.4 471.203 120.5 466.883 120.5C452.123 120.5 443.663 128.96 443.663 143.18V218H410.723Z" fill="#0F172A"/>
  <path d="M532.68 220.7C494.88 220.7 471.3 195.86 471.3 156.56C471.3 117.26 495.06 92.42 532.68 92.42C570.3 92.42 594.06 117.26 594.06 156.56C594.06 195.86 570.48 220.7 532.68 220.7ZM532.86 194.24C549.42 194.24 560.58 179.48 560.58 156.56C560.58 133.46 549.42 118.88 532.86 118.88C515.94 118.88 504.78 133.46 504.78 156.56C504.78 179.48 515.94 194.24 532.86 194.24Z" fill="#0F172A"/>
  <path d="M602.23 218V95.48H635.17V218H602.23ZM618.61 81.08C608.35 81.08 600.25 73.52 600.25 63.8C600.25 54.08 608.35 46.52 618.61 46.52C628.69 46.52 636.79 54.08 636.79 63.8C636.79 73.52 628.69 81.08 618.61 81.08Z" fill="#0F172A"/>
  <path d="M708.153 220.7C671.613 220.7 647.673 196.76 647.673 156.74C647.673 117.08 671.973 92.42 706.533 92.42C736.593 92.42 759.813 110.42 760.713 142.82H729.393C727.773 128.78 718.953 119.06 706.533 119.06C689.973 119.06 681.153 133.1 681.153 156.56C681.153 180.74 690.153 194.06 706.533 194.06C719.133 194.06 727.233 186.86 729.393 172.82H760.713C758.553 203.24 736.233 220.7 708.153 220.7Z" fill="#0F172A"/>
  <path d="M774.058 218V49.4H807.178V112.58H808.078C814.198 99.98 826.618 92.42 842.998 92.42C868.738 92.42 883.318 109.16 883.318 136.82V218H850.378V144.2C850.378 128.42 842.458 119.96 828.598 119.96C814.378 119.96 807.178 129.5 807.178 145.28V218H774.058Z" fill="#0F172A"/>
  <path d="M943.395 220.7C904.335 220.7 881.115 195.68 881.115 157.28C881.115 118.52 904.695 92.42 941.235 92.42C977.595 92.42 999.735 117.08 999.735 153.5V162.14H913.335C914.775 182.08 925.395 193.34 943.935 193.34C956.715 193.34 965.175 188.12 968.055 179.48H998.295C993.435 204.32 972.375 220.7 943.395 220.7ZM913.875 141.04H967.335C966.435 124.84 956.175 114.32 941.235 114.32C926.295 114.32 916.755 124.48 913.875 141.04Z" fill="#0F172A"/>
</svg>